{
  "source": "C:\\Users\\Peter\\Desktop\\stuff\\MIUN\\quantitative_research\\video_compression\\videos\\BVI-HD\\BVI-HD_CDVL_videos\\ORIG\\Music_1920x1080_30fps.mp4",
  "output": "C:\\Users\\Peter\\Desktop\\stuff\\MIUN\\quantitative_research\\video_compression\\compressed_videos\\BVI-HD\\h264\\1.5\\Music_1920x1080_30fps_h264.mp4",
  "codec": "h264",
  "ok": "Input #0, mov,mp4,m4a,3gp,3g2,mj2, from 'C:\\Users\\Peter\\Desktop\\stuff\\MIUN\\quantitative_research\\video_compression\\videos\\BVI-HD\\BVI-HD_CDVL_videos\\ORIG\\Music_1920x1080_30fps.mp4':\n  Metadata:\n    major_brand     : isom\n    minor_version   : 512\n    compatible_brands: isomiso2avc1mp41\n    encoder         : Lavf54.28.101\n  Duration: 00:00:05.00, start: 0.000000, bitrate: 192710 kb/s\n  Stream #0:0[0x1](und): Video: h264 (High 4:4:4 Predictive) (avc1 / 0x31637661), yuv420p(progressive), 1920x1080, 192707 kb/s, 30 fps, 30 tbr, 30 tbn (default)\n    Metadata:\n      handler_name    : VideoHandler\n      vendor_id       : [0][0][0][0]\n[out#0/mp4 @ 000001dbc6c49cc0] Codec AVOption b:a (set bitrate (in bits/s)) has not been used for any stream. The most likely reason is either wrong type (e.g. a video option with no video streams) or that it is a private option of some decoder which was not actually used for any stream.\nStream mapping:\n  Stream #0:0 -> #0:0 (h264 (native) -> h264 (libx264))\nPress [q] to stop, [?] for help\n[libx264 @ 000001dbc72300c0] using cpu capabilities: MMX2 SSE2Fast SSSE3 SSE4.2 AVX FMA3 BMI2 AVX2\n[libx264 @ 000001dbc72300c0] profile High, level 5.0, 4:2:0, 8-bit\n[libx264 @ 000001dbc72300c0] 264 - core 165 r3222 b35605a - H.264/MPEG-4 AVC codec - Copyleft 2003-2025 - http://www.videolan.org/x264.html - options: cabac=1 ref=5 deblock=1:0:0 analyse=0x3:0x113 me=hex subme=8 psy=1 psy_rd=1.00:0.00 mixed_ref=1 me_range=16 chroma_me=1 trellis=2 8x8dct=1 cqm=0 deadzone=21,11 fast_pskip=1 chroma_qp_offset=-2 threads=18 lookahead_threads=3 sliced_threads=0 nr=0 decimate=1 interlaced=0 bluray_compat=0 constrained_intra=0 bframes=3 b_pyramid=2 b_adapt=1 b_bias=0 direct=3 weightb=1 open_gop=0 weightp=2 keyint=250 keyint_min=25 scenecut=40 intra_refresh=0 rc_lookahead=50 rc=cbr mbtree=1 bitrate=1500 ratetol=1.0 qcomp=0.60 qpmin=0 qpmax=69 qpstep=4 vbv_maxrate=1500 vbv_bufsize=1500 nal_hrd=none filler=0 ip_ratio=1.40 aq=1:1.00\nOutput #0, mp4, to 'C:\\Users\\Peter\\Desktop\\stuff\\MIUN\\quantitative_research\\video_compression\\compressed_videos\\BVI-HD\\h264\\1.5\\Music_1920x1080_30fps_h264.mp4':\n  Metadata:\n    major_brand     : isom\n    minor_version   : 512\n    compatible_brands: isomiso2avc1mp41\n    encoder         : Lavf62.3.100\n  Stream #0:0(und): Video: h264 (avc1 / 0x31637661), yuv420p(tv, progressive), 1920x1080, q=2-31, 1500 kb/s, 30 fps, 15360 tbn (default)\n    Metadata:\n      encoder         : Lavc62.11.100 libx264\n      handler_name    : VideoHandler\n      vendor_id       : [0][0][0][0]\n    Side data:\n      cpb: bitrate max/min/avg: 1500000/0/1500000 buffer size: 1500000 vbv_delay: N/A\nframe=    0 fps=0.0 q=0.0 size=       0KiB time=N/A bitrate=N/A speed=N/A elapsed=0:00:00.53    \nframe=    0 fps=0.0 q=0.0 size=       0KiB time=N/A bitrate=N/A speed=N/A elapsed=0:00:01.08    \nframe=    0 fps=0.0 q=0.0 size=       0KiB time=N/A bitrate=N/A speed=N/A elapsed=0:00:01.61    \nframe=   10 fps=4.6 q=44.0 size=       0KiB time=00:00:00.23 bitrate=   1.6kbits/s speed=0.107x elapsed=0:00:02.17    \nframe=   17 fps=6.2 q=44.0 size=       0KiB time=00:00:00.50 bitrate=   0.8kbits/s speed=0.181x elapsed=0:00:02.75    \nframe=   38 fps= 12 q=45.0 size=       0KiB time=00:00:01.06 bitrate=   0.4kbits/s speed=0.326x elapsed=0:00:03.26    \nframe=   62 fps= 16 q=39.0 size=     256KiB time=00:00:01.86 bitrate=1123.7kbits/s speed=0.479x elapsed=0:00:03.89    \nframe=   92 fps= 20 q=39.0 size=     256KiB time=00:00:02.96 bitrate= 707.0kbits/s speed=0.654x elapsed=0:00:04.53    \nframe=  125 fps= 24 q=38.0 size=     512KiB time=00:00:03.93 bitrate=1066.4kbits/s speed=0.765x elapsed=0:00:05.14    \nframe=  145 fps= 25 q=-1.0 size=     512KiB time=00:00:04.76 bitrate= 880.0kbits/s speed=0.829x elapsed=0:00:05.75    \n[mp4 @ 000001dbc6c51300] Starting second pass: moving the moov atom to the beginning of the file\n[out#0/mp4 @ 000001dbc6c49cc0] video:780KiB audio:0KiB subtitle:0KiB other streams:0KiB global headers:0KiB muxing overhead: 0.288503%\nframe=  150 fps= 26 q=-1.0 Lsize=     782KiB time=00:00:04.93 bitrate=1298.2kbits/s speed=0.851x elapsed=0:00:05.79    \n[libx264 @ 000001dbc72300c0] frame I:3     Avg QP:36.04  size: 12425\n[libx264 @ 000001dbc72300c0] frame P:70    Avg QP:38.65  size:  7027\n[libx264 @ 000001dbc72300c0] frame B:77    Avg QP:41.78  size:  3485\n[libx264 @ 000001dbc72300c0] consecutive B-frames: 31.3%  0.0%  2.0% 66.7%\n[libx264 @ 000001dbc72300c0] mb I  I16..4: 51.5% 47.8%  0.8%\n[libx264 @ 000001dbc72300c0] mb P  I16..4: 24.4% 14.6%  0.0%  P16..4: 14.3%  0.5%  0.4%  0.0%  0.0%    skip:45.7%\n[libx264 @ 000001dbc72300c0] mb B  I16..4:  0.5%  0.6%  0.0%  B16..8: 22.4%  0.9%  0.0%  direct: 0.6%  skip:75.0%  L0:45.6% L1:53.6% BI: 0.9%\n[libx264 @ 000001dbc72300c0] 8x8 transform intra:38.9% inter:94.7%\n[libx264 @ 000001dbc72300c0] direct mvs  spatial:98.7% temporal:1.3%\n[libx264 @ 000001dbc72300c0] coded y,uvDC,uvAC intra: 3.1% 32.8% 0.9% inter: 0.9% 5.3% 0.0%\n[libx264 @ 000001dbc72300c0] i16 v,h,dc,p: 37% 21%  5% 37%\n[libx264 @ 000001dbc72300c0] i8 v,h,dc,ddl,ddr,vr,hd,vl,hu: 15%  3% 65%  3%  3%  4%  3%  3%  2%\n[libx264 @ 000001dbc72300c0] i4 v,h,dc,ddl,ddr,vr,hd,vl,hu: 17%  5% 15% 11% 15% 13%  9%  7%  8%\n[libx264 @ 000001dbc72300c0] i8c dc,h,v,p: 76% 13%  6%  5%\n[libx264 @ 000001dbc72300c0] Weighted P-Frames: Y:0.0% UV:0.0%\n[libx264 @ 000001dbc72300c0] ref P L0: 45.5%  7.0% 22.2% 11.1% 12.2%  2.0%\n[libx264 @ 000001dbc72300c0] ref B L0: 75.2% 14.3%  7.4%  3.2%\n[libx264 @ 000001dbc72300c0] ref B L1: 93.3%  6.7%\n[libx264 @ 000001dbc72300c0] kb/s:1276.00\n",
  "seconds": 6.240225315093994,
  "probe_out": {}
}